<svg t="1734336591450" class="icon" viewBox="0 0 1024 1024" version="1.1" xmlns="http://www.w3.org/2000/svg" p-id="1156" width="32" height="32"><path d="M219.39 205.36H823V358.4H219.39z" fill="#FCCF8D" p-id="1157"></path><path d="M219.39 775.79m12.57 0l578.47 0q12.57 0 12.57 12.57l0 39.07q0 12.57-12.57 12.57l-578.47 0q-12.57 0-12.57-12.57l0-39.07q0-12.57 12.57-12.57Z" fill="#F7AAD4" p-id="1158"></path><path d="M256.32 361.61h529.76v410.97H256.32z" fill="#F7AAD4" p-id="1159"></path><path d="M508.38 439.74h25.63c100.72 0 182.5 81.78 182.5 182.5v153.55H325.88V622.24c0-100.72 81.78-182.5 182.5-182.5z" fill="#FFFFFF" p-id="1160"></path><path d="M511.82 776.11s-117.53-40.08-97.02-114.93c10.26-37.46 37.57-57.54 50.75-61.2 21.36-5.92 35.8-26.11 34.94-48.26l-0.61-15.93c-10.45-23.88 63.09 29.88 73.14 59.71 10.05 29.83-13.43 58.21-13.43 58.21 19.4-5.97 43.74-35.89 35.82-55.23-13.43-32.84 34.06 13.53 38.81 38.81 7.17 38.14-5.97 73.14-34.33 94.04-31.07 22.89-88.07 44.78-88.07 44.78z" fill="#F7AAD4" p-id="1161"></path><path d="M518.52 776.11s-56.49-19.27-46.64-55.25c4.93-18.01 18.06-27.66 24.39-29.42 10.27-2.85 17.21-12.55 16.8-23.2l-0.29-7.66c-5.02-11.48 30.33 14.36 35.16 28.7s-6.46 27.98-6.46 27.98c9.33-2.87 21.02-17.25 17.22-26.55-6.46-15.78 16.37 6.5 18.65 18.65 3.45 18.33-2.87 35.16-16.5 45.2-14.93 11-42.33 21.52-42.33 21.52z" fill="#F97319" p-id="1162"></path><path d="M524.78 250.58l9.65 19.55c0.58 1.18 1.71 2 3.01 2.19l21.57 3.13c3.28 0.48 4.58 4.5 2.21 6.81l-15.61 15.21c-0.94 0.92-1.37 2.24-1.15 3.54l3.68 21.48c0.56 3.26-2.87 5.75-5.8 4.21l-19.29-10.14a4.01 4.01 0 0 0-3.72 0l-19.29 10.14c-2.93 1.54-6.36-0.95-5.8-4.21l3.68-21.48c0.22-1.3-0.21-2.62-1.15-3.54l-15.61-15.21c-2.37-2.31-1.06-6.34 2.21-6.81l21.57-3.13c1.3-0.19 2.43-1.01 3.01-2.19l9.65-19.55c1.47-2.97 5.7-2.97 7.16 0zM417.15 243.41l9.65 19.55c0.58 1.18 1.71 2 3.01 2.19l21.57 3.13c3.28 0.48 4.58 4.5 2.21 6.81l-15.61 15.21c-0.94 0.92-1.37 2.24-1.15 3.54l3.68 21.48c0.56 3.26-2.87 5.75-5.8 4.21l-19.29-10.14a4.01 4.01 0 0 0-3.72 0l-19.29 10.14c-2.93 1.54-6.36-0.95-5.8-4.21l3.68-21.48c0.22-1.3-0.21-2.62-1.15-3.54l-15.61-15.21c-2.37-2.31-1.06-6.34 2.21-6.81l21.57-3.13c1.3-0.19 2.43-1.01 3.01-2.19l9.65-19.55c1.47-2.97 5.7-2.97 7.16 0zM630.72 243.41l9.65 19.55c0.58 1.18 1.71 2 3.01 2.19l21.57 3.13c3.28 0.48 4.58 4.5 2.21 6.81l-15.61 15.21c-0.94 0.92-1.37 2.24-1.15 3.54l3.68 21.48c0.56 3.26-2.87 5.75-5.8 4.21l-19.29-10.14a4.01 4.01 0 0 0-3.72 0l-19.29 10.14c-2.93 1.54-6.36-0.95-5.8-4.21l3.68-21.48c0.22-1.3-0.21-2.62-1.15-3.54l-15.61-15.21c-2.37-2.31-1.06-6.34 2.21-6.81l21.57-3.13c1.3-0.19 2.43-1.01 3.01-2.19l9.65-19.55c1.47-2.97 5.7-2.97 7.16 0z" fill="#FFFFFF" p-id="1163"></path><path d="M520.97 291.25c-103.72 0-180.83-21.02-227.26-38.65-50.49-19.17-76.05-38.13-77.11-38.92a3.994 3.994 0 0 1-0.8-5.6 3.994 3.994 0 0 1 5.6-0.8c0.36 0.27 26.06 19.25 75.52 37.99 45.74 17.33 121.74 37.99 224.05 37.99 67.91 0 164.46-6.98 238.78-40.22 35.46-15.86 54.75-33.15 59.99-40.08a4.011 4.011 0 0 1 5.6-0.79 4 4 0 0 1 0.8 5.59c-0.65 0.87-16.46 21.54-62.27 42.2-75.7 34.13-173.87 41.3-242.9 41.3z" fill="#FFFFFF" p-id="1164"></path></svg>