<svg t="1734336620305" class="icon" viewBox="0 0 1024 1024" version="1.1" xmlns="http://www.w3.org/2000/svg" p-id="1331" width="32" height="32"><path d="M180.37 684.28l172.52-33.41c6.83-1.32 12.89 4.58 11.74 11.44l-29.05 173.36c-1.68 10-15.46 11.41-19.14 1.97l-10.95-28.16a9.981 9.981 0 0 0-10.85-6.24l-15.93 2.51c-6.46 1.02-12.14-4.36-11.48-10.87l2.08-20.38c0.59-5.8-3.89-10.86-9.71-10.99l-52.54-1.11c-8.78-0.19-13.06-10.81-6.84-17.03l12.48-12.48c4.99-4.99 3.37-13.43-3.11-16.22l-31.25-13.45c-9.02-3.88-7.59-17.09 2.05-18.96zM842.63 327.71l-193.37 37.45 31.61-188.62c1.62-9.69 14.99-11.06 18.55-1.91l11.44 29.42a9.672 9.672 0 0 0 10.52 6.05l16.57-2.61c6.27-0.99 11.77 4.22 11.13 10.53l-3.21 31.53 64.06 1.36c8.52 0.18 12.66 10.48 6.63 16.51l-13.3 13.3c-4.83 4.83-3.26 13.02 3.02 15.72l37.97 16.34c7.11 3.06 5.99 13.47-1.61 14.94z" fill="#FCCF8D" p-id="1332"></path><path d="M254.277168 615.402525m66.807449-66.807449l227.596459-227.596459q66.807449-66.807449 133.614898 0l6.250824 6.250824q66.807449 66.807449 0 133.614897l-227.59646 227.59646q-66.807449 66.807449-133.614897 0l-6.250824-6.250824q-66.807449-66.807449 0-133.614898Z" fill="#FCCF8D" p-id="1333"></path><path d="M394.14 721.14c-26.57 0-51.55-10.35-70.34-29.14l-6.25-6.25c-38.79-38.79-38.79-101.9 0-140.69l227.59-227.59c38.79-38.79 101.9-38.79 140.69 0l6.25 6.25c38.79 38.79 38.79 101.9 0 140.69L464.49 692c-18.79 18.79-43.77 29.14-70.34 29.14z m221.34-422.76c-22.91 0-45.83 8.72-63.27 26.17L324.62 552.14c-34.89 34.89-34.89 91.66 0 126.55l6.25 6.25c16.9 16.9 39.37 26.21 63.27 26.21s46.37-9.31 63.27-26.21L685 457.35c34.89-34.89 34.89-91.66 0-126.55l-6.25-6.25c-17.44-17.44-40.36-26.17-63.27-26.17z" fill="#FFFFFF" p-id="1334"></path><path d="M504.56 534.7m-23.21 0a23.21 23.21 0 1 0 46.42 0 23.21 23.21 0 1 0-46.42 0Z" fill="#FFFFFF" p-id="1335"></path><path d="M611.13 469.97m-18.04 0a18.04 18.04 0 1 0 36.08 0 18.04 18.04 0 1 0-36.08 0Z" fill="#FFFFFF" p-id="1336"></path><path d="M365.14 633.26m-18.04 0a18.04 18.04 0 1 0 36.08 0 18.04 18.04 0 1 0-36.08 0Z" fill="#FFFFFF" p-id="1337"></path><path d="M593.31 353.55m-23.52 0a23.52 23.52 0 1 0 47.04 0 23.52 23.52 0 1 0-47.04 0Z" fill="#FFFFFF" p-id="1338"></path><path d="M400.54 534.75m-23.52 0a23.52 23.52 0 1 0 47.04 0 23.52 23.52 0 1 0-47.04 0Z" fill="#FFFFFF" p-id="1339"></path><path d="M322.78 730.25h-0.18a5.005 5.005 0 0 1-4.82-5.18l1.21-33.78-29.33 4.94c-2.72 0.46-5.3-1.38-5.76-4.1a5.003 5.003 0 0 1 4.1-5.76l35.38-5.96c1.48-0.25 3 0.18 4.13 1.17s1.75 2.44 1.7 3.94l-1.43 39.91c-0.1 2.7-2.32 4.82-4.99 4.82zM685.42 329.13c-1.7 0-3.34-0.87-4.26-2.39a4.994 4.994 0 0 1 0.73-6.15l35.68-35.68a5.003 5.003 0 0 1 7.07 0 5.003 5.003 0 0 1 0 7.07l-20.96 20.96 51.26-16.66c2.63-0.85 5.45 0.58 6.3 3.21s-0.58 5.45-3.21 6.3l-71.07 23.09c-0.51 0.17-1.03 0.25-1.54 0.25z" fill="#FFFDFD" p-id="1340"></path><path d="M771.93 478.19l-10.48-19.53a5.938 5.938 0 0 0-2.38-2.41l-19.36-10.79c-4.16-2.32-4.11-8.32 0.08-10.57l19.53-10.48a5.938 5.938 0 0 0 2.41-2.38l10.79-19.36c2.32-4.16 8.32-4.11 10.57 0.08l10.48 19.53a5.938 5.938 0 0 0 2.38 2.41l19.36 10.79c4.16 2.32 4.11 8.32-0.08 10.57l-19.53 10.48a5.938 5.938 0 0 0-2.41 2.38l-10.79 19.36c-2.32 4.16-8.32 4.11-10.57-0.08zM241.6 571.21l-15.41-28.73a8.833 8.833 0 0 0-3.49-3.55l-28.48-15.87c-6.12-3.41-6.05-12.24 0.12-15.55l28.73-15.41c1.49-0.8 2.73-2.01 3.55-3.49l15.87-28.48c3.41-6.12 12.24-6.05 15.55 0.12l15.41 28.73c0.8 1.49 2.01 2.73 3.49 3.55l28.48 15.87c6.12 3.41 6.05 12.24-0.12 15.55l-28.73 15.41c-1.49 0.8-2.73 2.01-3.55 3.49l-15.87 28.48c-3.41 6.12-12.24 6.05-15.55-0.12z" fill="#F7AAD4" p-id="1341"></path><path d="M653.99 426.92l-7.89-14.7c-0.41-0.76-1.03-1.4-1.79-1.82l-14.57-8.12c-3.13-1.75-3.1-6.26 0.06-7.96l14.7-7.89c0.76-0.41 1.4-1.03 1.82-1.79l8.12-14.57c1.75-3.13 6.26-3.1 7.96 0.06l7.89 14.7c0.41 0.76 1.03 1.4 1.79 1.82l14.57 8.12c3.13 1.75 3.1 6.26-0.06 7.96l-14.7 7.89c-0.76 0.41-1.4 1.03-1.82 1.79l-8.12 14.57c-1.75 3.13-6.26 3.1-7.96-0.06zM520.18 492.89l-11.27-21.01a6.533 6.533 0 0 0-2.56-2.6l-20.83-11.61c-4.48-2.49-4.42-8.95 0.09-11.37l21.01-11.27a6.533 6.533 0 0 0 2.6-2.56l11.61-20.83c2.49-4.48 8.95-4.42 11.37 0.09l11.27 21.01a6.533 6.533 0 0 0 2.56 2.6l20.83 11.61c4.48 2.49 4.42 8.95-0.09 11.37l-21.01 11.27a6.533 6.533 0 0 0-2.6 2.56l-11.61 20.83c-2.49 4.48-8.95 4.42-11.37-0.09zM457.03 630.87l-7.77-14.48c-0.4-0.75-1.02-1.37-1.76-1.79l-14.36-8c-3.09-1.72-3.05-6.17 0.06-7.84l14.48-7.77c0.75-0.4 1.37-1.02 1.79-1.76l8-14.36c1.72-3.09 6.17-3.05 7.84 0.06l7.77 14.48c0.4 0.75 1.02 1.37 1.76 1.79l14.36 8c3.09 1.72 3.05 6.17-0.06 7.84l-14.48 7.77c-0.75 0.4-1.37 1.02-1.79 1.76l-8 14.36c-1.72 3.09-6.17 3.05-7.84-0.06z" fill="#FFFDFD" p-id="1342"></path></svg>