<svg t="1734330796607" class="icon" viewBox="0 0 1024 1024" version="1.1" xmlns="http://www.w3.org/2000/svg" p-id="1156" width="32" height="32"><path d="M741.4 702.49m-50.28 0a50.28 50.28 0 1 0 100.56 0 50.28 50.28 0 1 0-100.56 0Z" fill="#FCCF8D" p-id="1157"></path><path d="M629.3 831.88c-9.57 9.57-25.77 6.09-30.68-6.53-17.9-45.95-44.16-88.51-79.94-124.29l-27.26-27.26c-62.46-62.46-60.35-162.11 0.46-222.42 61.04-60.54 161.68-59.37 222.47 1.43l26.29 26.29c34.23 34.23 78.02 61.64 124.5 79.94 12.53 4.93 15.9 21.09 6.38 30.62L629.3 831.88z" fill="#FCCF8D" p-id="1158"></path><path d="M616.13 842.35c-1.62 0-3.26-0.17-4.89-0.51a23.755 23.755 0 0 1-17.29-14.68c-18.52-47.55-45.04-88.79-78.81-122.57l-27.26-27.26c-30.7-30.7-47.55-71.4-47.47-114.62 0.09-43.51 17.11-84.31 47.94-114.88 30.42-30.17 71.24-46.63 114.89-46.24 43.53 0.35 84.24 17.28 114.64 47.68l26.29 26.29c32.89 32.89 75.35 60.14 122.8 78.82a23.632 23.632 0 0 1 14.52 17.23c1.63 7.85-0.78 15.91-6.44 21.58L632.83 835.41c-4.5 4.5-10.5 6.94-16.7 6.94z m-14.26-430.76c-40.5 0-78.27 15.36-106.48 43.34-28.92 28.69-44.9 66.97-44.98 107.8-0.08 40.54 15.73 78.73 44.54 107.53l27.26 27.26c34.76 34.76 62.03 77.16 81.06 126.01 1.73 4.44 5.38 7.55 10.03 8.52 4.59 0.97 9.14-0.39 12.46-3.71l3.54 3.54-3.54-3.54 242.22-242.22c3.32-3.32 4.68-7.87 3.72-12.47-0.96-4.6-4.02-8.23-8.4-9.96-48.71-19.18-92.35-47.21-126.2-81.06l-26.29-26.29c-28.53-28.53-66.76-44.42-107.65-44.75h-1.29z" fill="#FFFFFF" p-id="1159"></path><path d="M595.35 784.47l229.1-229.1" fill="#FCCF8D" p-id="1160"></path><path d="M591.813 780.936l229.103-229.103 7.07 7.071-229.102 229.103z" fill="#FFFFFF" p-id="1161"></path><path d="M290.44 702.16m-50.28 0a50.28 50.28 0 1 0 100.56 0 50.28 50.28 0 1 0-100.56 0Z" fill="#FFFFFF" p-id="1162"></path><path d="M290.44 757.41c-14.16 0-28.31-5.39-39.09-16.16-10.44-10.44-16.19-24.32-16.19-39.09s5.75-28.65 16.19-39.09c21.55-21.55 56.62-21.55 78.18 0 21.55 21.55 21.55 56.62 0 78.18-10.78 10.78-24.93 16.16-39.09 16.16z m0-100.51c-11.59 0-23.19 4.41-32.02 13.24-8.55 8.55-13.26 19.92-13.26 32.02s4.71 23.46 13.26 32.02c17.65 17.65 46.38 17.65 64.03 0s17.65-46.38 0-64.03c-8.83-8.83-20.42-13.24-32.02-13.24z" fill="#FCCF8D" p-id="1163"></path><path d="M161.06 590.06c-9.57-9.57-6.09-25.77 6.53-30.68 45.95-17.9 88.51-44.16 124.29-79.94l27.26-27.26c62.46-62.46 162.11-60.35 222.42 0.46 60.54 61.04 59.37 161.68-1.43 222.47l-26.29 26.29c-34.23 34.23-61.64 78.02-79.94 124.5-4.93 12.53-21.09 15.9-30.62 6.38L161.06 590.06z" fill="#FCCF8D" p-id="1164" data-spm-anchor-id="a313x.collections_detail.0.i0.417a3a81DMo224" class="selected"></path><path d="M416.47 842.76c-6.21 0-12.22-2.45-16.72-6.94L157.53 593.6a23.58 23.58 0 0 1-6.43-21.59 23.755 23.755 0 0 1 14.68-17.29c47.55-18.52 88.79-45.04 122.57-78.81l27.26-27.26c30.62-30.62 71.19-47.47 114.29-47.47h0.34c43.51 0.09 84.31 17.11 114.88 47.94 30.17 30.42 46.59 71.22 46.24 114.89-0.35 43.53-17.28 84.24-47.68 114.64l-26.29 26.29c-32.89 32.89-60.14 75.35-78.82 122.8a23.635 23.635 0 0 1-17.22 14.52c-1.62 0.34-3.24 0.5-4.86 0.5z m13.41-431.58c-40.42 0-78.49 15.81-107.22 44.54l-27.26 27.26c-34.76 34.76-77.16 62.03-126.01 81.06-4.44 1.73-7.55 5.38-8.52 10.03-0.96 4.59 0.39 9.14 3.71 12.46L406.8 828.75c3.32 3.32 7.87 4.68 12.47 3.72 4.6-0.96 8.23-4.02 9.96-8.4 19.18-48.71 47.21-92.35 81.06-126.2l26.29-26.29c28.53-28.53 44.42-66.76 44.75-107.65 0.33-40.99-15.06-79.26-43.34-107.77-28.69-28.92-66.97-44.9-107.8-44.98h-0.32z" fill="#FFFFFF" p-id="1165"></path><path d="M437.57 790.21c-1.28 0-2.56-0.49-3.54-1.46l-229.1-229.1a5.003 5.003 0 0 1 0-7.07 5.003 5.003 0 0 1 7.07 0l229.1 229.1a5.003 5.003 0 0 1 0 7.07 4.98 4.98 0 0 1-3.54 1.46z" fill="#FFFFFF" p-id="1166"></path><path d="M516.29 297.96m-99.96 0a99.96 99.96 0 1 0 199.92 0 99.96 99.96 0 1 0-199.92 0Z" fill="#FCCF8D" p-id="1167"></path><path d="M469.26 306.26h95.43v95.43h-95.43zM469.26 381.24l-147.68 34.08c-15.11 3.49-29.54-7.99-29.54-23.5v-77.24c0-15 13.55-26.36 28.32-23.75l148.9 26.34v64.07z" fill="#F7AAD4" p-id="1168"></path><path d="M316.11 416.44c-5.5 0-10.86-1.85-15.28-5.36-5.91-4.7-9.29-11.72-9.29-19.27v-77.24c0-7.3 3.21-14.17 8.8-18.86a24.565 24.565 0 0 1 20.11-5.38l149.31 26.42v64.89L321.7 415.81c-1.85 0.43-3.73 0.64-5.58 0.64z m0.03-125.49c-5.5 0-10.86 1.92-15.16 5.52-5.36 4.5-8.44 11.1-8.44 18.1v77.24c0 7.24 3.25 13.98 8.91 18.48 5.67 4.51 12.96 6.16 20.01 4.53l147.29-33.99v-63.25l-148.49-26.27c-1.38-0.24-2.76-0.36-4.13-0.36z" fill="#FFFFFF" p-id="1169"></path><path d="M564.69 381.24l147.68 34.08c15.11 3.49 29.54-7.99 29.54-23.5v-77.24c0-15-13.55-26.36-28.32-23.75l-148.9 26.34v64.07z" fill="#F7AAD4" p-id="1170" data-spm-anchor-id="a313x.collections_detail.0.i1.417a3a81DMo224" class="selected"></path><path d="M717.83 416.44c-1.86 0-3.73-0.21-5.58-0.64l-148.07-34.17v-64.89l0.41-0.07 148.9-26.34c7.19-1.27 14.52 0.69 20.11 5.38a24.56 24.56 0 0 1 8.8 18.86v77.24c0 7.55-3.39 14.57-9.29 19.27-4.42 3.51-9.78 5.36-15.28 5.36z m-152.65-35.6l147.29 33.99c7.05 1.63 14.35-0.02 20.01-4.53 5.67-4.51 8.91-11.24 8.91-18.48v-77.24c0-7-3.08-13.6-8.44-18.1-5.36-4.5-12.4-6.38-19.29-5.16l-148.49 26.27v63.25zM359.48 381.61a2.998 2.998 0 0 1-0.72-5.91l80.57-20.09h-64.17c-1.66 0-3-1.34-3-3s1.34-3 3-3h88.61c1.52 0 2.79 1.13 2.98 2.63 0.18 1.5-0.78 2.91-2.25 3.28l-104.29 26c-0.24 0.06-0.49 0.09-0.73 0.09z" fill="#FFFFFF" p-id="1171"></path><path d="M656.94 373.37c-0.19 0-0.39-0.02-0.59-0.06l-86.91-17.26a2.994 2.994 0 0 1 0.44-5.93l107.35-5.19c1.65-0.08 3.06 1.2 3.14 2.85 0.08 1.65-1.2 3.06-2.85 3.14l-82.94 4.01 62.94 12.5c1.63 0.32 2.68 1.9 2.36 3.53a3.002 3.002 0 0 1-2.94 2.42z" fill="#FFFFFF" p-id="1172"></path><path d="M456.5 378.84l-178.65 90.91h71.87v60.08L456.5 378.84zM576.08 378.84l178.65 90.91h-71.87v60.08L576.08 378.84z" fill="#F7AAD4" p-id="1173"></path></svg>