<svg t="1734336686784" class="icon" viewBox="0 0 1024 1024" version="1.1" xmlns="http://www.w3.org/2000/svg" p-id="1678" width="32" height="32"><path d="M495.95 721m4.12 0l54.76 0q4.12 0 4.12 4.12l0 164.76q0 4.12-4.12 4.12l-54.76 0q-4.12 0-4.12-4.12l0-164.76q0-4.12 4.12-4.12Z" fill="#FCCF8D" p-id="1679"></path><path d="M507.04 233.97l-99.71 146.45c-11.16 16.39 0.58 38.58 20.41 38.58h199.42c19.83 0 31.56-22.19 20.41-38.58l-99.71-146.45c-9.8-14.39-31.01-14.39-40.81 0zM507.04 457.97L324.05 726.73c-11.16 16.39 0.58 38.58 20.41 38.58h365.98c19.83 0 31.56-22.19 20.41-38.58L547.86 457.97c-9.8-14.39-31.01-14.39-40.81 0z" fill="#4A7F46" p-id="1680"></path><path d="M507.04 344.97l-139.2 204.45c-11.16 16.39 0.58 38.58 20.41 38.58h278.4c19.83 0 31.56-22.19 20.41-38.58l-139.2-204.45c-9.8-14.39-31.01-14.39-40.81 0z" fill="#4A7F46" p-id="1681"></path><path d="M624 534m-28 0a28 28 0 1 0 56 0 28 28 0 1 0-56 0Z" fill="#FCCF8D" p-id="1682"></path><path d="M483 395m-24 0a24 24 0 1 0 48 0 24 24 0 1 0-48 0Z" fill="#FFFFFF" p-id="1683"></path><path d="M455 706m-24 0a24 24 0 1 0 48 0 24 24 0 1 0-48 0Z" fill="#FFFFFF" p-id="1684"></path><path d="M533.38 140.69l15.98 32.39a6.616 6.616 0 0 0 4.98 3.62l35.74 5.19c5.43 0.79 7.6 7.46 3.67 11.29l-25.86 25.21a6.611 6.611 0 0 0-1.9 5.86l6.11 35.6c0.93 5.41-4.75 9.53-9.6 6.98l-31.97-16.81a6.64 6.64 0 0 0-6.16 0l-31.97 16.81c-4.86 2.55-10.53-1.57-9.6-6.98l6.11-35.6c0.37-2.15-0.34-4.34-1.9-5.86l-25.86-25.21c-3.93-3.83-1.76-10.5 3.67-11.29l35.74-5.19a6.599 6.599 0 0 0 4.98-3.62l15.98-32.39c2.43-4.92 9.44-4.92 11.87 0z" fill="#FCCF8D" p-id="1685"></path></svg>