<svg t="1734336644570" class="icon" viewBox="0 0 1024 1024" version="1.1" xmlns="http://www.w3.org/2000/svg" p-id="1507" width="32" height="32"><path d="M515.89 304.91h11.57v50.14h-11.57z" fill="#F7AAD4" p-id="1508"></path><path d="M417.13 338.68H621.1c17.13 0 31.04 13.91 31.04 31.04v405.89H386.09V369.72c0-17.13 13.91-31.04 31.04-31.04z" fill="#F7AAD4" p-id="1509"></path><path d="M706.84 775.61H331.39c-2.24 0-4.3-1.21-5.38-3.17l-13.62-24.52c-2.28-4.1 0.69-9.15 5.38-9.15h402.7c4.69 0 7.66 5.04 5.38 9.15l-13.62 24.52a6.178 6.178 0 0 1-5.38 3.17zM386.09 775.61h266.04V881H386.09z" fill="#FCCF8D" p-id="1510"></path><path d="M408.49 334.59h151.55s4.09 150.42-19.44 150.42c-32.79 0-22.92-94.38-42.98-96.18-22.56-2.03-8.19 116.65-26.45 117.52-17.21 0.82-24.73-62.23-27.81-87.43-0.88-7.21-6.36-13.18-13.55-14.2-6.57-0.93-13.74 1.88-16.09 16.86-4.71 29.95-5.72 97.67-27.63 94.14-12.96-2.09-10.58-86.52-11.04-134.48-0.24-25.67 14.81-46.64 33.44-46.64z" fill="#FFFFFF" p-id="1511"></path><path d="M387.73 518.84c-0.69 0-1.4-0.06-2.12-0.17-11.52-1.86-13.47-36.3-13.48-112.81 0-8.82 0-17.14-0.07-24.6-0.15-15.63 5.29-30.54 14.56-39.89 6.33-6.39 13.9-9.77 21.88-9.77h154.47l0.08 2.92c0.36 13.37 3.02 131.21-15.59 150.33-2.04 2.1-4.35 3.17-6.85 3.17-21.01 0-26.17-31.29-30.73-58.89-2.84-17.21-6.06-36.72-12.52-37.3-0.87-0.08-1.58 0.18-2.32 0.82-6.84 5.94-8.31 35.27-9.49 58.84-1.78 35.54-3.42 57.35-14.22 57.87-0.16 0-0.33 0.01-0.49 0.01-17.05 0-24.66-42.82-30.33-89.18l-0.11-0.9c-0.74-6.02-5.26-10.78-10.99-11.6-2.53-0.36-10.22-1.45-12.71 14.35-0.99 6.27-1.83 14.38-2.71 22.96-3 28.97-6.39 61.81-18.59 71.15-2.34 1.79-4.9 2.69-7.65 2.69z m20.76-181.25c-6.34 0-12.44 2.77-17.62 8-8.16 8.24-12.95 21.55-12.82 35.61 0.07 7.49 0.07 15.83 0.07 24.66 0 23.79 0.01 50.75 1.38 71.94 2.18 33.78 6.86 34.92 7.06 34.95 1.91 0.31 3.55-0.12 5.16-1.36 10.14-7.77 13.69-42.01 16.27-67.01 0.9-8.66 1.74-16.84 2.75-23.28 2.96-18.82 13.47-20.21 19.48-19.36 8.42 1.19 15.04 8.1 16.11 16.81l0.11 0.9c1.58 12.92 4.23 34.55 8.6 52.91 6.74 28.34 13.43 31.12 15.99 31 0.55-0.03 3.43-0.86 5.58-14.68 1.56-10.07 2.23-23.39 2.94-37.5 1.43-28.51 2.78-55.44 11.55-63.06 1.97-1.71 4.32-2.49 6.8-2.27 11.08 1 14.09 19.23 17.9 42.3 4.17 25.25 8.89 53.87 24.81 53.87 0.3 0 1.23 0 2.55-1.35 3.96-4.07 10.97-19.77 13.37-79.12 1.14-28.25 0.76-55.23 0.59-63.95H408.5zM527.3 300.82s-80.57-27.48-66.51-78.79c7.04-25.68 25.76-39.45 34.79-41.95 14.64-4.06 24.54-17.9 23.95-33.08l-0.42-10.92c-7.16-16.37 43.25 20.48 50.14 40.93 6.89 20.45-9.21 39.91-9.21 39.91 13.3-4.09 29.98-24.6 24.56-37.86-9.21-22.51 23.35 9.28 26.6 26.6 4.91 26.15-4.09 50.14-23.53 64.46-21.3 15.69-60.37 30.7-60.37 30.7z" fill="#F7AAD4" p-id="1512"></path><path d="M580.99 817.66l-8.93-16.65a5.096 5.096 0 0 0-2.03-2.06l-16.5-9.2c-3.55-1.98-3.51-7.09 0.07-9.01l16.65-8.93c0.87-0.46 1.58-1.17 2.06-2.03l9.2-16.5c1.98-3.55 7.09-3.51 9.01 0.07l8.93 16.65c0.46 0.87 1.17 1.58 2.03 2.06l16.5 9.2c3.55 1.98 3.51 7.09-0.07 9.01l-16.65 8.93c-0.87 0.46-1.58 1.17-2.06 2.03l-9.2 16.5c-1.98 3.55-7.09 3.51-9.01-0.07z" fill="#FFFDFD" p-id="1513"></path></svg>